inDegrees=no
num_controls=7
num_derivatives=13
num_iterations=191
num_multipliers=7
num_parameters=0
num_slacks=7
num_states=26
objective=5.565230
objective_accelerations=0.225514
objective_balance=0.039426
objective_effort=0.354902
objective_height=4.921965
objective_ligament=0.023422
solver_duration=1704.573786
status=Solve_Succeeded
success=true
DataType=double
version=3
OpenSimVersion=4.4-2022-07-23-0e9fedc
endheader
time	/jointset/ground_pelvis/pelvis_tilt/value	/jointset/ground_pelvis/pelvis_tx/value	/jointset/ground_pelvis/pelvis_ty/value	/jointset/hip_r/hip_flexion_r/value	/jointset/hip_r/hip_adduction_r/value	/jointset/hip_r/hip_rotation_r/value	/jointset/back/lumbar_extension/value	/jointset/patellofemoral_r/patellar_flexion_r/value	/jointset/knee_r/knee_flexion_r/value	/jointset/knee_r/knee_adduction_r/value	/jointset/knee_r/knee_rotation_r/value	/jointset/ankle_r/ankle_angle_r/value	/jointset/subtalar_r/subtalar_angle_r/value	/jointset/ground_pelvis/pelvis_tilt/speed	/jointset/ground_pelvis/pelvis_tx/speed	/jointset/ground_pelvis/pelvis_ty/speed	/jointset/hip_r/hip_flexion_r/speed	/jointset/hip_r/hip_adduction_r/speed	/jointset/hip_r/hip_rotation_r/speed	/jointset/back/lumbar_extension/speed	/jointset/patellofemoral_r/patellar_flexion_r/speed	/jointset/knee_r/knee_flexion_r/speed	/jointset/knee_r/knee_adduction_r/speed	/jointset/knee_r/knee_rotation_r/speed	/jointset/ankle_r/ankle_angle_r/speed	/jointset/subtalar_r/subtalar_angle_r/speed	/forceset/tau_hip_flexion_r	/forceset/tau_hip_adduction_r	/forceset/tau_hip_rotation_r	/forceset/tau_knee_flexion_r	/forceset/tau_ankle_angle_r	/forceset/tau_subtalar_angle_r	/forceset/tau_lumbar_extension	lambda_cid13_p0	lambda_cid14_p0	lambda_cid14_p1	lambda_cid14_p2	lambda_cid14_p3	lambda_cid14_p4	lambda_cid14_p5	/jointset/ground_pelvis/pelvis_tilt/accel	/jointset/ground_pelvis/pelvis_tx/accel	/jointset/ground_pelvis/pelvis_ty/accel	/jointset/hip_r/hip_flexion_r/accel	/jointset/hip_r/hip_adduction_r/accel	/jointset/hip_r/hip_rotation_r/accel	/jointset/back/lumbar_extension/accel	/jointset/patellofemoral_r/patellar_flexion_r/accel	/jointset/knee_r/knee_flexion_r/accel	/jointset/knee_r/knee_adduction_r/accel	/jointset/knee_r/knee_rotation_r/accel	/jointset/ankle_r/ankle_angle_r/accel	/jointset/subtalar_r/subtalar_angle_r/accel	gamma_cid13_p0	gamma_cid14_p0	gamma_cid14_p1	gamma_cid14_p2	gamma_cid14_p3	gamma_cid14_p4	gamma_cid14_p5
1	-0.01310957863628839	0.0994256548882804	0.832409207153624	0.6666600881985266	-0.2476093394783671	-0.07579680885208978	-0.4360663373391567	0.909474434057002	0.9094744340568516	0.05301417564999823	0.1745324753983385	0.4363132923325225	0.08455896177655055	-0.002178045401220216	0.008490378662037917	0.01111507272891037	-0.03929309835208764	0.002097649252088291	-0.01363023608066843	0.02275749856596268	-0.05009727097383727	-0.0500972709738375	-0.001060146235191859	-1.17996424454346e-05	-0.01012137439847355	0.000293740000579885	-0.0868487849144533	0.02097306843096322	0.01550301088352665	-0.3959696851531662	-0.0903085964016689	0.003692055522894861	0.1707138801259014	-18.31201725301662	-74.39845655673686	-9.672635129171644	0.002517835361451617	20.94996250641668	-746.4112143012946	57.44659944722226	0.1796611400867553	-0.04416870785705853	0.7674242787754577	-2.226589453262986	0.09749122817180181	-0.6579364046597445	0.9795389333282654	-3.517455977853012	-3.517455977853081	0.2703706694106275	-0.0110812437058004	-1.641610499257385	-0.4036958686048628	-2.55657000023098e-10	-4.219452522539593e-09	-1.43323044794799e-08	-4.230393509688342e-09	5.889273481054546e-09	-5.28743454988767e-09	-1.122786149851508e-08
1.01	-0.01312321309648318	0.09950841663461236	0.8325585731009693	0.6661568509250992	-0.2475835595101555	-0.07596655649354551	-0.4357884033810814	0.9087979226681677	0.9087979226681168	0.05301676573588291	0.1745323564277587	0.4361301231888296	0.08454164964383032	-0.0005813921054239157	0.008069818824049769	0.01875436333209623	-0.06133220035540829	0.003056671956792273	-0.02031620579805074	0.03291232005363557	-0.08521162317134427	-0.08521162317134495	0.001587096990914353	-1.128305377913002e-05	-0.02650949157035242	-0.003757430229088313	-0.08712322891911548	0.02107651127634591	0.01548661354926839	-0.3953840672131677	-0.09075484370834259	0.00372043027612969	0.1709799745432232	-18.35630944070243	-74.53809615604069	-9.677141990048371	-0.005467595717533247	20.95854737541092	-746.4404543662371	57.39560751467361	0.144785519200524	-0.03982099157723237	0.7616167574300247	-2.189247501155885	0.09485457380759332	-0.6734642417171867	1.045907807166333	-3.509417280217823	-3.509417280217845	0.2632384332590757	0.005722179166313365	-1.636967891617359	-0.4060215813827229	-8.790489477052988e-11	-5.077763543681132e-09	-2.29881945236455e-08	-7.561983153250316e-09	6.975134776830121e-09	-8.381022588551784e-09	-1.643845315471442e-08
1.02	-0.01312185740474555	0.09958720850860296	0.8327842190156144	0.6654338872461797	-0.24754823995846	-0.07620307122946161	-0.4354064303979938	0.907770069269455	0.9077700692695045	0.05304609571083974	0.1745322634368789	0.4357831617603245	0.08448378701256647	0.000819984985349502	0.00769640419375973	0.0263710661888879	-0.08323837945030058	0.004005565949008707	-0.02698365497302007	0.04356530356848995	-0.1203656729495818	-0.1203656729495825	0.004287831578957353	-6.603704573904474e-06	-0.04287983136079983	-0.007816359708153007	-0.08739767292378073	0.02117995412173827	0.01547021621495734	-0.3947984492731679	-0.09120109101501217	0.003748805029383732	0.1712460689605404	-18.42369514613371	-74.68886512443579	-9.678799577920726	-0.01938722892173376	20.9868945020673	-746.6479023853132	57.36308626311236	0.1406058990821729	-0.03473966631743045	0.7629067294966221	-2.200004871577315	0.09546548567429475	-0.6542322961771415	1.079171338764563	-3.525395493999122	-3.525395493999115	0.281068941797987	-0.01024869159802707	-1.638055022971085	-0.405247718484156	2.545734559931011e-10	-6.06983674141109e-09	-3.404856004520966e-08	-7.660318548109424e-09	9.009085423881443e-09	-1.073606173494429e-08	-2.596516858257236e-08
1.03	-0.01310735123926487	0.09966251910607141	0.8330858906833635	0.6644924376409046	-0.2475034443444165	-0.076506253165431	-0.434915560567853	0.9063905613150921	0.9063905613153441	0.05310254963526855	0.1745322236543319	0.4352726681892232	0.08438540478443485	0.002058641634595968	0.007375337315142437	0.03395652673836776	-0.1050367612649646	0.004955541535955606	-0.03365812117677915	0.05468116681609987	-0.1555339833860641	-0.1555339833860646	0.006997057512468327	-1.84600560066846e-06	-0.0592077599934473	-0.01185077860170261	-0.0875163641770121	0.02120218951112833	0.0154347452569272	-0.3940602841923287	-0.09134696895435952	0.003734356583199739	0.1713498213402035	-18.51417648776183	-74.72355182377854	-9.677003190850927	-0.03583054695857389	20.93497469966712	-746.5032003096429	57.31161128935321	0.112104484626793	-0.02934467340059694	0.7553519933512841	-2.167538253671439	0.09505782282702976	-0.6748612369147144	1.138669471227987	-3.512258759801959	-3.512258759801919	0.2649597861102591	0.005760115057723079	-1.628492966108741	-0.4011507989259044	5.98834727629295e-10	-7.063274859310321e-09	-4.513346103082891e-08	-7.725661552675629e-09	1.105271045206824e-08	-1.308356466815035e-08	-3.553592608973295e-08
